<?xml version="1.0" encoding="UTF-8"?>
<svg width="12px" height="12px" viewBox="0 0 12 12" version="1.1" xmlns="http://www.w3.org/2000/svg" xmlns:xlink="http://www.w3.org/1999/xlink">
    <!-- Generator: Sketch 55.2 (78181) - https://sketchapp.com -->
    <title>extlink2</title>
    <desc>Created with Sketch.</desc>
    <g id="extlink2" stroke="none" stroke-width="1" fill="none" fill-rule="evenodd">
        <g id="Group" transform="translate(0.000000, -1.000000)" fill="#000000" fill-rule="nonzero">
            <g id="arr-copy" transform="translate(2.000000, 0.000000)">
                <path d="M8.44133563,6.09748852 L1.20013795,6.09748852 C0.888592702,6.09748852 0.636035381,5.83828496 0.636035381,5.51854116 C0.636035381,5.19879735 0.888592702,4.93959379 1.20013795,4.93959379 L8.44170862,4.93959379 L7.31005604,3.80794121 C7.08976029,3.58764545 7.09445989,3.22577586 7.3205529,2.99968285 C7.54664591,2.77358984 7.90851551,2.76889023 8.12881126,2.98918598 L10.123215,4.98358973 C10.2114823,5.07185702 10.2636285,5.1828528 10.2798853,5.29873643 C10.3070068,5.36651128 10.3219622,5.44073375 10.3219622,5.51854116 C10.3219622,5.57664674 10.3136217,5.63275303 10.2981024,5.68566779 C10.2887647,5.81515972 10.235299,5.94103563 10.1373888,6.0389458 L8.14298505,8.03334954 C7.9226893,8.2536453 7.5608197,8.24894569 7.33472669,8.02285268 C7.10863368,7.79675967 7.10393408,7.43489008 7.32422983,7.21459432 L8.44133563,6.09748852 Z" id="Combined-Shape" transform="translate(5.478999, 5.511268) rotate(-45.000000) translate(-5.478999, -5.511268) "></path>
            </g>
            <path d="M4.08851207,5.09090909 L7.36363636,5.09090909 C7.66488259,5.09090909 7.90909091,5.33511741 7.90909091,5.63636364 L7.90909091,11.3636364 C7.90909091,11.6648826 7.66488259,11.9090909 7.36363636,11.9090909 L1.63636364,11.9090909 C1.33511741,11.9090909 1.09090909,11.6648826 1.09090909,11.3636364 L1.09090909,8.09990511 C1.09090909,7.79865888 0.846700773,7.55445057 0.545454545,7.55445057 C0.244208318,7.55445057 0,7.79865888 0,8.09990511 L0,11.3636364 C0,12.267375 0.732624955,13 1.63636364,13 L7.36363636,13 C8.26737505,13 9,12.267375 9,11.3636364 L9,5.63636364 C9,4.73262495 8.26737505,4 7.36363636,4 L4.08851207,4 C3.78726585,4 3.54305753,4.24420832 3.54305753,4.54545455 C3.54305753,4.84670077 3.78726585,5.09090909 4.08851207,5.09090909 Z" id="Rectangle-Copy" transform="translate(4.500000, 8.500000) rotate(90.000000) translate(-4.500000, -8.500000) "></path>
        </g>
    </g>
</svg>