<?xml version="1.0" encoding="UTF-8"?>
<svg width="11px" height="12px" viewBox="0 0 11 12" version="1.1" xmlns="http://www.w3.org/2000/svg" xmlns:xlink="http://www.w3.org/1999/xlink">
    <!-- Generator: Sketch 56.2 (81672) - https://sketch.com -->
    <title>lock</title>
    <desc>Created with Sketch.</desc>
    <g id="lock" stroke="none" stroke-width="1" fill="none" fill-rule="evenodd">
        <path d="M8.92857143,5.8125 L8.39285714,5.8125 L8.39285714,4.265625 C8.39285714,2 6.87053571,1 5,1 C3.12946429,1 1.60714286,2.01208099 1.60714286,4.265625 L1.60714286,5.8125 L1.07142857,5.8125 C0.479910714,5.8125 0,6.27441406 0,6.84375 L0,10.96875 C0,11.5380859 0.479910714,12 1.07142857,12 L8.92857143,12 C9.52008929,12 10,11.5380859 10,10.96875 L10,6.84375 C10,6.27441406 9.52008929,5.8125 8.92857143,5.8125 Z M7,5 L3,5 L3,3.99963379 C3,2.44226074 4.06469727,2 5,2 C5.93530273,2 7,2.45941162 7,3.99963379 L7,5 Z" id="Shape-Copy" fill="#000000" fill-rule="nonzero"></path>
    </g>
</svg>