<?xml version="1.0" encoding="UTF-8"?>
<svg width="192px" height="192px" viewBox="0 0 192 192" version="1.1" xmlns="http://www.w3.org/2000/svg" xmlns:xlink="http://www.w3.org/1999/xlink">
    <!-- Generator: Sketch 56.2 (81672) - https://sketch.com -->
    <title>favicon copy 3</title>
    <desc>Created with Sketch.</desc>
    <g id="favicon-copy-3" stroke="none" stroke-width="1" fill="none" fill-rule="evenodd">
        <path d="M119.597277,110.026689 L119.630404,109.862395 L119.644434,109.695394 C120.168402,103.458666 115.852741,98.2266609 109.616168,97.7111531 C93.9904953,95.938455 85.8646336,114.511709 95.014565,126.931324 C108.763901,146.356122 141.062133,134.706372 147.82101,111.018298 C155.771682,83.4162151 132.122691,56.6854879 102.487834,55.8209292 C79.5456324,55.2472103 60.4376978,67.9101964 50.3909932,88.382568 C41.4303108,106.64193 41.0810811,128.432341 49.8763415,146.49895 L19.2885096,146.49895 C10.7332804,119.734871 14.6872847,88.98824 29.6834894,66.4946 C45.2922029,42.5340795 73.6823099,27.4594104 101.976466,27.8336124 C130.645844,28.2029285 157.948568,45.1953917 169.884983,69.9849765 L169.898807,70.013293 C179.952911,90.3281076 179.543727,114.27458 168.820218,132.980523 C158.132077,151.624773 136.656679,164.173722 115.573086,164.173722 C96.2187521,163.810989 77.8225575,152.5498 69.7716061,136.215235 C57.2773056,110.67776 73.7925759,78.1685448 101.240414,78.1685448 C116.550619,78.1685448 130.431327,91.5868607 126.707626,104.822124 C125.368428,109.068993 122.209695,112.430652 118.230031,113.970368 C118.844258,112.757455 119.311289,111.445054 119.597277,110.026689 Z" id="Combined-Shape" fill="#FFCC00"></path>
    </g>
</svg>