<?xml version="1.0" standalone="no"?>
<!DOCTYPE svg PUBLIC "-//W3C//DTD SVG 20010904//EN"
 "http://www.w3.org/TR/2001/REC-SVG-20010904/DTD/svg10.dtd">
<svg version="1.0" xmlns="http://www.w3.org/2000/svg"
 width="700.000000pt" height="700.000000pt" viewBox="0 0 700.000000 700.000000"
 preserveAspectRatio="xMidYMid meet">
<metadata>
Created by potrace 1.11, written by Peter Selinger 2001-2013
</metadata>
<g transform="translate(0.000000,700.000000) scale(0.100000,-0.100000)"
fill="#000000" stroke="none">
<path d="M3568 5985 c-2 -2 -48 -5 -104 -9 -55 -4 -109 -8 -120 -10 -11 -2
-46 -7 -76 -10 -145 -16 -543 -117 -653 -166 -11 -5 -65 -27 -120 -50 -115
-48 -335 -159 -389 -195 -20 -14 -39 -25 -42 -25 -6 0 -142 -90 -180 -119 -12
-9 -32 -23 -44 -31 -155 -104 -401 -336 -565 -531 -71 -85 -223 -302 -269
-384 -9 -16 -26 -46 -38 -65 -101 -168 -214 -443 -289 -700 -46 -157 -89 -359
-104 -486 -4 -33 -9 -70 -11 -84 -25 -149 -25 -675 0 -805 2 -11 7 -45 10 -75
8 -67 11 -87 37 -220 19 -98 39 -183 75 -307 l15 -53 560 0 559 0 -23 48 c-13
26 -34 74 -46 107 -13 33 -27 69 -32 80 -9 19 -19 54 -60 200 -69 254 -92 628
-55 895 2 14 6 50 10 80 4 30 12 71 16 90 5 19 11 47 14 61 32 185 150 492
267 696 101 175 210 317 358 463 173 172 296 263 496 366 154 79 376 158 505
179 19 3 60 10 90 15 208 35 463 32 675 -10 33 -6 71 -13 85 -16 62 -12 274
-89 358 -130 481 -233 829 -653 933 -1127 41 -186 44 -411 9 -572 -5 -22 -11
-54 -14 -72 -9 -48 -65 -201 -98 -268 -56 -110 -142 -229 -233 -320 -111 -112
-136 -133 -233 -196 -375 -245 -814 -281 -1126 -92 -228 139 -379 382 -390
627 -11 288 135 533 381 636 69 29 91 34 187 37 170 5 262 -26 355 -118 105
-106 142 -275 88 -409 -25 -61 -25 -61 -3 -54 44 14 123 73 173 128 175 197
178 489 5 743 -107 158 -300 301 -500 369 -202 70 -461 69 -687 -3 -429 -136
-769 -523 -889 -1013 -34 -142 -39 -189 -40 -370 -1 -212 13 -305 75 -494 79
-239 224 -463 427 -657 466 -446 1138 -638 1742 -497 47 11 94 21 106 24 127
25 476 172 587 248 21 14 41 26 45 26 5 0 53 32 107 71 329 235 563 504 727
831 78 156 156 369 182 498 3 14 8 36 11 50 35 152 50 309 49 530 0 320 -52
593 -167 895 -32 84 -125 281 -165 350 -61 105 -83 140 -146 228 -225 317
-549 607 -891 797 -71 39 -272 140 -280 140 -3 0 -24 9 -48 19 -218 97 -554
180 -842 207 -67 6 -342 13 -347 9z"/>
</g>
</svg>
