<?xml version="1.0" encoding="UTF-8"?>
<svg width="10px" height="10px" viewBox="0 0 10 10" version="1.1" xmlns="http://www.w3.org/2000/svg" xmlns:xlink="http://www.w3.org/1999/xlink">
    <!-- Generator: Sketch 55.2 (78181) - https://sketchapp.com -->
    <title>extlink2</title>
    <desc>Created with Sketch.</desc>
    <g id="extlink2" stroke="none" stroke-width="1" fill="none" fill-rule="evenodd">
        <g id="Group" transform="translate(0.000000, -1.000000)" fill="#000000" fill-rule="nonzero">
            <g id="arr-copy" transform="translate(2.000000, 0.000000)">
                <path d="M6.86162347,5.03377811 L1.00053912,5.03377811 C0.745638466,5.03377811 0.539000658,4.80992048 0.539000658,4.53377811 C0.539000658,4.25763573 0.745638466,4.03377811 1.00053912,4.03377811 L6.86192865,4.03377811 L5.98095494,3.15280441 C5.80071296,2.97256242 5.81288921,2.66815618 6.00815136,2.47289404 C6.2034135,2.27763189 6.50781974,2.26545564 6.68806172,2.44569762 L8.3198466,4.0774825 C8.40730549,4.16494139 8.44945979,4.28163457 8.44737568,4.40090732 C8.45811433,4.44321742 8.46384984,4.48777215 8.46384984,4.53377811 C8.46384984,4.56303189 8.4615308,4.59169889 8.45708102,4.61957513 C8.46889553,4.75082946 8.42748697,4.88212818 8.33144334,4.9781718 L6.69965846,6.60995668 C6.51941648,6.79019866 6.21501024,6.77802241 6.01974809,6.58276027 C5.82448595,6.38749812 5.8123097,6.08309188 5.99255168,5.9028499 L6.86162347,5.03377811 Z" id="Combined-Shape" transform="translate(4.501425, 4.527827) rotate(-45.000000) translate(-4.501425, -4.527827) "></path>
            </g>
            <path d="M3.63423295,3.96969697 L6.54545455,3.96969697 C6.81322897,3.96969697 7.03030303,4.18677103 7.03030303,4.45454545 L7.03030303,9.54545455 C7.03030303,9.81322897 6.81322897,10.030303 6.54545455,10.030303 L1.45454545,10.030303 C1.18677103,10.030303 0.96969697,9.81322897 0.96969697,9.54545455 L0.96969697,6.6443601 C0.96969697,6.37658568 0.752622909,6.15951161 0.484848485,6.15951161 C0.217074061,6.15951161 0,6.37658568 0,6.6443601 L0,9.54545455 C0,10.3487778 0.651222182,11 1.45454545,11 L6.54545455,11 C7.34877782,11 8,10.3487778 8,9.54545455 L8,4.45454545 C8,3.65122218 7.34877782,3 6.54545455,3 L3.63423295,3 C3.36645853,3 3.14938447,3.21707406 3.14938447,3.48484848 C3.14938447,3.75262291 3.36645853,3.96969697 3.63423295,3.96969697 Z" id="Rectangle-Copy" transform="translate(4.000000, 7.000000) rotate(90.000000) translate(-4.000000, -7.000000) "></path>
        </g>
    </g>
</svg>