<?xml version="1.0" encoding="UTF-8"?>
<svg width="13px" height="13px" viewBox="0 0 13 13" version="1.1" xmlns="http://www.w3.org/2000/svg" xmlns:xlink="http://www.w3.org/1999/xlink">
    <!-- Generator: Sketch 55.2 (78181) - https://sketchapp.com -->
    <title>extlink2</title>
    <desc>Created with Sketch.</desc>
    <g id="extlink2" stroke="none" stroke-width="1" fill="none" fill-rule="evenodd">
        <g id="Group" transform="translate(0.000000, -1.000000)" fill="#000000" fill-rule="nonzero">
            <g id="arr-copy" transform="translate(2.000000, 0.000000)">
                <path d="M9.20872978,6.65180566 L1.3092414,6.65180566 C0.969373857,6.65180566 0.69385678,6.36903814 0.69385678,6.02022672 C0.69385678,5.67141529 0.969373857,5.38864777 1.3092414,5.38864777 L9.20913668,5.38864777 L7.97460659,4.15411768 C7.73428395,3.91379504 7.73941079,3.51902821 7.98605771,3.27238129 C8.23270463,3.02573437 8.62747146,3.02060752 8.8677941,3.26093017 L11.0435073,5.43664334 C11.1397989,5.53293493 11.1966856,5.65402123 11.2144203,5.78043974 C11.2440074,5.85437594 11.2603224,5.93534591 11.2603224,6.02022672 C11.2603224,6.08361462 11.2512236,6.14482148 11.2342935,6.20254668 C11.224107,6.34381061 11.1657807,6.48112978 11.0589696,6.58794087 L8.88325642,8.76365405 C8.64293378,9.00397669 8.24816695,8.99884984 8.00152003,8.75220292 C7.75487311,8.505556 7.74974627,8.11078917 7.99006891,7.87046653 L9.20872978,6.65180566 Z" id="Combined-Shape" transform="translate(5.977090, 6.012292) rotate(-45.000000) translate(-5.977090, -6.012292) "></path>
            </g>
            <path d="M4.54279119,5.21212121 L8.18181818,5.21212121 C8.51653621,5.21212121 8.78787879,5.48346379 8.78787879,5.81818182 L8.78787879,12.1818182 C8.78787879,12.5165362 8.51653621,12.7878788 8.18181818,12.7878788 L1.81818182,12.7878788 C1.48346379,12.7878788 1.21212121,12.5165362 1.21212121,12.1818182 L1.21212121,8.55545012 C1.21212121,8.22073209 0.940778636,7.94938952 0.606060606,7.94938952 C0.271342576,7.94938952 0,8.22073209 0,8.55545012 L0,12.1818182 C0,13.1859723 0.814027728,14 1.81818182,14 L8.18181818,14 C9.18597227,14 10,13.1859723 10,12.1818182 L10,5.81818182 C10,4.81402773 9.18597227,4 8.18181818,4 L4.54279119,4 C4.20807316,4 3.93673059,4.27134258 3.93673059,4.60606061 C3.93673059,4.94077864 4.20807316,5.21212121 4.54279119,5.21212121 Z" id="Rectangle-Copy" transform="translate(5.000000, 9.000000) rotate(90.000000) translate(-5.000000, -9.000000) "></path>
        </g>
    </g>
</svg>